# xmcd
#
# Track frame offsets:
# 150
# 16813
# 35100
# 48491
# 62875
# 74935
# 88766
# 101780
# 115547
# 128164
# 140853
# 155354
# 169532
# 182537
# 195702
# 211095
# 225255
# 240017
# 252150
# 266859
# 281059
# 296334
# 308475
# 322681
# 338460
#
# Disc length: 4690 seconds
#
#
# Revision: 0
# Processed by: cddbd v1.5.1PL0 Copyright (c) Steve Scherf et al.
# Submitted via: FreeRIP 2.941 
#
DISCID=5d125019
DTITLE=Cadetes de Linares - Puros Corridos de Oro
DYEAR=0005
DGENRE=Country
TTITLE0=Intro
TTITLE1=El Carrito
TTITLE2=Los Dos Amigos
TTITLE3=Eleazar Del Fierro
TTITLE4=Pistoleros Famosos
TTITLE5=Las Tres Tumbas
TTITLE6=Dimas De Leon
TTITLE7=Cazador De Asesinos
TTITLE8=Jesus Malverde
TTITLE9=El Asesino
TTITLE10=La Trajedia De Rosita
TTITLE11=El Vengador Del 3006
TTITLE12=Julian Del Real
TTITLE13=Pescadores De Ensenada
TTITLE14=Silvano Garcia
TTITLE15=La Venganza De Maria
TTITLE16=El Pata De Palo
TTITLE17=Pedro Y  La Mafia
TTITLE18=El Muchacho Y El Potro
TTITLE19=Nomas Las Mujeres Quedan
TTITLE20=Pista Secreta
TTITLE21=Cruzando El Puente
TTITLE22=El Hijo Del Palenque
TTITLE23=Corrido De Los Perez
TTITLE24=Descanse El General
EXTD=
EXTT0=
EXTT1=
EXTT2=
EXTT3=
EXTT4=
EXTT5=
EXTT6=
EXTT7=
EXTT8=
EXTT9=
EXTT10=
EXTT11=
EXTT12=
EXTT13=
EXTT14=
EXTT15=
EXTT16=
EXTT17=
EXTT18=
EXTT19=
EXTT20=
EXTT21=
EXTT22=
EXTT23=
EXTT24=
PLAYORDER=
